<svg xmlns="http://www.w3.org/2000/svg" viewBox="0 0 800 800" width="2400" height="2400">
  <defs>
    <linearGradient id="bg" x1="0" y1="0" x2="0" y2="1">
      <stop offset="0%" stop-color="#060a13"/>
      <stop offset="100%" stop-color="#0f172a"/>
    </linearGradient>
    <linearGradient id="north" x1="0.5" y1="0" x2="0.5" y2="1">
      <stop offset="0%" stop-color="#2dd4bf"/>
      <stop offset="100%" stop-color="#0d9488"/>
    </linearGradient>
    <filter id="glow">
      <feGaussianBlur stdDeviation="10"/>
      <feMerge>
        <feMergeNode/>
        <feMergeNode in="SourceGraphic"/>
      </feMerge>
    </filter>
  </defs>

  <!-- Background -->
  <rect width="800" height="800" fill="url(#bg)"/>

  <!-- Pulse rings emanating from compass center -->
  <circle cx="400" cy="275" r="80" fill="none" stroke="#0d9488" stroke-width="1" opacity="0.1"/>
  <circle cx="400" cy="275" r="125" fill="none" stroke="#0d9488" stroke-width="0.75" opacity="0.06"/>
  <circle cx="400" cy="275" r="170" fill="none" stroke="#0d9488" stroke-width="0.5" opacity="0.03"/>

  <!-- Compass cross lines (S, E, W) -->
  <line x1="400" y1="283" x2="400" y2="335" stroke="#1e293b" stroke-width="1.5"/>
  <line x1="342" y1="275" x2="458" y2="275" stroke="#1e293b" stroke-width="1.5"/>

  <!-- North pointer — glow layer -->
  <g filter="url(#glow)" opacity="0.35">
    <polygon points="400,185 413,268 387,268" fill="#0d9488"/>
  </g>

  <!-- North pointer — solid -->
  <polygon points="400,185 413,268 400,255 387,268" fill="url(#north)"/>

  <!-- Compass center dot -->
  <circle cx="400" cy="275" r="5" fill="#0f172a" stroke="#0d9488" stroke-width="2"/>
  <circle cx="400" cy="275" r="2" fill="#2dd4bf"/>

  <!-- Cardinal end-dots (S, E, W) -->
  <circle cx="400" cy="335" r="2.5" fill="#1e293b"/>
  <circle cx="342" cy="275" r="2.5" fill="#1e293b"/>
  <circle cx="458" cy="275" r="2.5" fill="#1e293b"/>

  <!-- Main wordmark -->
  <text x="400" y="450"
        text-anchor="middle"
        font-family="'Helvetica Neue','Segoe UI',Helvetica,Arial,sans-serif"
        font-size="108"
        letter-spacing="2">
    <tspan font-weight="900" fill="#0d9488">FLAS</tspan><tspan font-weight="200" fill="#2dd4bf">point</tspan>
  </text>

  <!-- Accent rule -->
  <line x1="255" y1="475" x2="545" y2="475" stroke="#0d9488" stroke-width="0.75" opacity="0.2"/>

  <!-- Descriptor -->
  <text x="400" y="512"
        text-anchor="middle"
        font-family="'Helvetica Neue','Segoe UI',Helvetica,Arial,sans-serif"
        font-size="18"
        font-weight="300"
        fill="#475569"
        letter-spacing="10">NEWSLETTER</text>
</svg>
